%TF.GenerationSoftware,KiCad,Pcbnew,6.0.9*%
%TF.CreationDate,2022-12-25T21:15:46+09:00*%
%TF.ProjectId,Aideepen_ESP32,41696465-6570-4656-9e5f-45535033322e,rev?*%
%TF.SameCoordinates,Original*%
%TF.FileFunction,OtherDrawing,Comment*%
%FSLAX46Y46*%
G04 Gerber Fmt 4.6, Leading zero omitted, Abs format (unit mm)*
G04 Created by KiCad (PCBNEW 6.0.9) date 2022-12-25 21:15:46*
%MOMM*%
%LPD*%
G01*
G04 APERTURE LIST*
%ADD10C,0.800000*%
G04 APERTURE END LIST*
D10*
X116332857Y-77241428D02*
X117399523Y-77241428D01*
X117856666Y-78917619D02*
X116332857Y-78917619D01*
X116332857Y-75717619D01*
X117856666Y-75717619D01*
X119075714Y-78765238D02*
X119532857Y-78917619D01*
X120294761Y-78917619D01*
X120599523Y-78765238D01*
X120751904Y-78612857D01*
X120904285Y-78308095D01*
X120904285Y-78003333D01*
X120751904Y-77698571D01*
X120599523Y-77546190D01*
X120294761Y-77393809D01*
X119685238Y-77241428D01*
X119380476Y-77089047D01*
X119228095Y-76936666D01*
X119075714Y-76631904D01*
X119075714Y-76327142D01*
X119228095Y-76022380D01*
X119380476Y-75870000D01*
X119685238Y-75717619D01*
X120447142Y-75717619D01*
X120904285Y-75870000D01*
X122275714Y-78917619D02*
X122275714Y-75717619D01*
X123494761Y-75717619D01*
X123799523Y-75870000D01*
X123951904Y-76022380D01*
X124104285Y-76327142D01*
X124104285Y-76784285D01*
X123951904Y-77089047D01*
X123799523Y-77241428D01*
X123494761Y-77393809D01*
X122275714Y-77393809D01*
X125170952Y-75717619D02*
X127151904Y-75717619D01*
X126085238Y-76936666D01*
X126542380Y-76936666D01*
X126847142Y-77089047D01*
X126999523Y-77241428D01*
X127151904Y-77546190D01*
X127151904Y-78308095D01*
X126999523Y-78612857D01*
X126847142Y-78765238D01*
X126542380Y-78917619D01*
X125628095Y-78917619D01*
X125323333Y-78765238D01*
X125170952Y-78612857D01*
X128370952Y-76022380D02*
X128523333Y-75870000D01*
X128828095Y-75717619D01*
X129590000Y-75717619D01*
X129894761Y-75870000D01*
X130047142Y-76022380D01*
X130199523Y-76327142D01*
X130199523Y-76631904D01*
X130047142Y-77089047D01*
X128218571Y-78917619D01*
X130199523Y-78917619D01*
X116332857Y-83210238D02*
X116790000Y-83362619D01*
X117551904Y-83362619D01*
X117856666Y-83210238D01*
X118009047Y-83057857D01*
X118161428Y-82753095D01*
X118161428Y-82448333D01*
X118009047Y-82143571D01*
X117856666Y-81991190D01*
X117551904Y-81838809D01*
X116942380Y-81686428D01*
X116637619Y-81534047D01*
X116485238Y-81381666D01*
X116332857Y-81076904D01*
X116332857Y-80772142D01*
X116485238Y-80467380D01*
X116637619Y-80315000D01*
X116942380Y-80162619D01*
X117704285Y-80162619D01*
X118161428Y-80315000D01*
X119532857Y-83362619D02*
X119532857Y-80162619D01*
X119532857Y-81686428D02*
X121361428Y-81686428D01*
X121361428Y-83362619D02*
X121361428Y-80162619D01*
X122428095Y-80162619D02*
X124256666Y-80162619D01*
X123342380Y-83362619D02*
X123342380Y-80162619D01*
X125018571Y-80162619D02*
X126999523Y-80162619D01*
X125932857Y-81381666D01*
X126390000Y-81381666D01*
X126694761Y-81534047D01*
X126847142Y-81686428D01*
X126999523Y-81991190D01*
X126999523Y-82753095D01*
X126847142Y-83057857D01*
X126694761Y-83210238D01*
X126390000Y-83362619D01*
X125475714Y-83362619D01*
X125170952Y-83210238D01*
X125018571Y-83057857D01*
X129894761Y-80162619D02*
X128370952Y-80162619D01*
X128218571Y-81686428D01*
X128370952Y-81534047D01*
X128675714Y-81381666D01*
X129437619Y-81381666D01*
X129742380Y-81534047D01*
X129894761Y-81686428D01*
X130047142Y-81991190D01*
X130047142Y-82753095D01*
X129894761Y-83057857D01*
X129742380Y-83210238D01*
X129437619Y-83362619D01*
X128675714Y-83362619D01*
X128370952Y-83210238D01*
X128218571Y-83057857D01*
M02*
