%TF.GenerationSoftware,KiCad,Pcbnew,6.0.9*%
%TF.CreationDate,2022-12-25T21:15:46+09:00*%
%TF.ProjectId,Aideepen_ESP32,41696465-6570-4656-9e5f-45535033322e,rev?*%
%TF.SameCoordinates,Original*%
%TF.FileFunction,Copper,L1,Top*%
%TF.FilePolarity,Positive*%
%FSLAX46Y46*%
G04 Gerber Fmt 4.6, Leading zero omitted, Abs format (unit mm)*
G04 Created by KiCad (PCBNEW 6.0.9) date 2022-12-25 21:15:46*
%MOMM*%
%LPD*%
G01*
G04 APERTURE LIST*
G04 Aperture macros list*
%AMRoundRect*
0 Rectangle with rounded corners*
0 $1 Rounding radius*
0 $2 $3 $4 $5 $6 $7 $8 $9 X,Y pos of 4 corners*
0 Add a 4 corners polygon primitive as box body*
4,1,4,$2,$3,$4,$5,$6,$7,$8,$9,$2,$3,0*
0 Add four circle primitives for the rounded corners*
1,1,$1+$1,$2,$3*
1,1,$1+$1,$4,$5*
1,1,$1+$1,$6,$7*
1,1,$1+$1,$8,$9*
0 Add four rect primitives between the rounded corners*
20,1,$1+$1,$2,$3,$4,$5,0*
20,1,$1+$1,$4,$5,$6,$7,0*
20,1,$1+$1,$6,$7,$8,$9,0*
20,1,$1+$1,$8,$9,$2,$3,0*%
G04 Aperture macros list end*
%TA.AperFunction,SMDPad,CuDef*%
%ADD10RoundRect,0.250000X0.650000X-0.412500X0.650000X0.412500X-0.650000X0.412500X-0.650000X-0.412500X0*%
%TD*%
%TA.AperFunction,ComponentPad*%
%ADD11R,1.700000X1.700000*%
%TD*%
%TA.AperFunction,ComponentPad*%
%ADD12O,1.700000X1.700000*%
%TD*%
%TA.AperFunction,Conductor*%
%ADD13C,0.800000*%
%TD*%
G04 APERTURE END LIST*
D10*
%TO.P,C1,1*%
%TO.N,/EN*%
X129540000Y-90462500D03*
%TO.P,C1,2*%
%TO.N,GND*%
X129540000Y-87337500D03*
%TD*%
D11*
%TO.P,J2,1,Pin_1*%
%TO.N,/EN*%
X137160000Y-70450000D03*
D12*
%TO.P,J2,2,Pin_2*%
%TO.N,/GPIO36*%
X137160000Y-72990000D03*
%TO.P,J2,3,Pin_3*%
%TO.N,/GPIO39*%
X137160000Y-75530000D03*
%TO.P,J2,4,Pin_4*%
%TO.N,/GPIO34*%
X137160000Y-78070000D03*
%TO.P,J2,5,Pin_5*%
%TO.N,/GPIO35*%
X137160000Y-80610000D03*
%TO.P,J2,6,Pin_6*%
%TO.N,/GPIO32*%
X137160000Y-83150000D03*
%TO.P,J2,7,Pin_7*%
%TO.N,/GPIO33*%
X137160000Y-85690000D03*
%TO.P,J2,8,Pin_8*%
%TO.N,/GPIO25*%
X137160000Y-88230000D03*
%TO.P,J2,9,Pin_9*%
%TO.N,/GPIO26*%
X137160000Y-90770000D03*
%TO.P,J2,10,Pin_10*%
%TO.N,/GPIO27*%
X137160000Y-93310000D03*
%TO.P,J2,11,Pin_11*%
%TO.N,/GPIO14*%
X137160000Y-95850000D03*
%TO.P,J2,12,Pin_12*%
%TO.N,/GPIO12*%
X137160000Y-98390000D03*
%TO.P,J2,13,Pin_13*%
%TO.N,/GPIO13*%
X137160000Y-100930000D03*
%TO.P,J2,14,Pin_14*%
%TO.N,GND*%
X137160000Y-103470000D03*
%TO.P,J2,15,Pin_15*%
%TO.N,+5V*%
X137160000Y-106010000D03*
%TD*%
D11*
%TO.P,J1,1,Pin_1*%
%TO.N,+3.3V*%
X147320000Y-83820000D03*
D12*
%TO.P,J1,2,Pin_2*%
%TO.N,/GPIO21*%
X147320000Y-86360000D03*
%TO.P,J1,3,Pin_3*%
%TO.N,/GPIO22*%
X147320000Y-88900000D03*
%TO.P,J1,4,Pin_4*%
%TO.N,unconnected-(J1-Pad4)*%
X147320000Y-91440000D03*
%TO.P,J1,5,Pin_5*%
%TO.N,GND*%
X147320000Y-93980000D03*
%TD*%
D11*
%TO.P,J3,1,Pin_1*%
%TO.N,/GPIO23*%
X111160000Y-70450000D03*
D12*
%TO.P,J3,2,Pin_2*%
%TO.N,/GPIO22*%
X111160000Y-72990000D03*
%TO.P,J3,3,Pin_3*%
%TO.N,/GPIO1*%
X111160000Y-75530000D03*
%TO.P,J3,4,Pin_4*%
%TO.N,/GPIO3*%
X111160000Y-78070000D03*
%TO.P,J3,5,Pin_5*%
%TO.N,/GPIO21*%
X111160000Y-80610000D03*
%TO.P,J3,6,Pin_6*%
%TO.N,/GPIO19*%
X111160000Y-83150000D03*
%TO.P,J3,7,Pin_7*%
%TO.N,/GPIO18*%
X111160000Y-85690000D03*
%TO.P,J3,8,Pin_8*%
%TO.N,/GPIO5*%
X111160000Y-88230000D03*
%TO.P,J3,9,Pin_9*%
%TO.N,/GPIO17*%
X111160000Y-90770000D03*
%TO.P,J3,10,Pin_10*%
%TO.N,/GPIO16*%
X111160000Y-93310000D03*
%TO.P,J3,11,Pin_11*%
%TO.N,/GPIO4*%
X111160000Y-95850000D03*
%TO.P,J3,12,Pin_12*%
%TO.N,/GPIO2*%
X111160000Y-98390000D03*
%TO.P,J3,13,Pin_13*%
%TO.N,/GPIO15*%
X111160000Y-100930000D03*
%TO.P,J3,14,Pin_14*%
%TO.N,GND*%
X111160000Y-103470000D03*
%TO.P,J3,15,Pin_15*%
%TO.N,+3.3V*%
X111160000Y-106010000D03*
%TD*%
D13*
%TO.N,/EN*%
X133350000Y-89046250D02*
X133350000Y-73025000D01*
X133350000Y-73025000D02*
X135925000Y-70450000D01*
X129540000Y-90462500D02*
X131933750Y-90462500D01*
X135925000Y-70450000D02*
X137160000Y-70450000D01*
X131933750Y-90462500D02*
X133350000Y-89046250D01*
%TO.N,GND*%
X137160000Y-103470000D02*
X111160000Y-103470000D01*
X111160000Y-103470000D02*
X112362081Y-103470000D01*
X137830000Y-103470000D02*
X147320000Y-93980000D01*
X128494581Y-87337500D02*
X129540000Y-87337500D01*
X137160000Y-103470000D02*
X137830000Y-103470000D01*
X112362081Y-103470000D02*
X128494581Y-87337500D01*
%TO.N,+3.3V*%
X149860000Y-96209138D02*
X138009138Y-108060000D01*
X149225000Y-83820000D02*
X149860000Y-84455000D01*
X138009138Y-108060000D02*
X113210000Y-108060000D01*
X147320000Y-83820000D02*
X149225000Y-83820000D01*
X113210000Y-108060000D02*
X111160000Y-106010000D01*
X149860000Y-84455000D02*
X149860000Y-96209138D01*
%TO.N,/GPIO21*%
X111910862Y-109660000D02*
X109110000Y-106859138D01*
X151460000Y-96871880D02*
X138671880Y-109660000D01*
X109110000Y-82025000D02*
X110525000Y-80610000D01*
X109110000Y-106859138D02*
X109110000Y-82025000D01*
X145270000Y-85870000D02*
X145270000Y-81770000D01*
X138671880Y-109660000D02*
X111910862Y-109660000D01*
X147320000Y-86360000D02*
X145760000Y-86360000D01*
X145270000Y-81770000D02*
X149437742Y-81770000D01*
X110525000Y-80610000D02*
X111160000Y-80610000D01*
X151460000Y-83792258D02*
X151460000Y-96871880D01*
X149437742Y-81770000D02*
X151460000Y-83792258D01*
X145760000Y-86360000D02*
X145270000Y-85870000D01*
%TO.N,/GPIO22*%
X139210000Y-68400000D02*
X135110000Y-68400000D01*
X143670000Y-86532742D02*
X143670000Y-72860000D01*
X146037258Y-88900000D02*
X143670000Y-86532742D01*
X147320000Y-88900000D02*
X146037258Y-88900000D01*
X143670000Y-72860000D02*
X139210000Y-68400000D01*
X135110000Y-68400000D02*
X130520000Y-72990000D01*
X130520000Y-72990000D02*
X111160000Y-72990000D01*
%TD*%
M02*
