%TF.GenerationSoftware,KiCad,Pcbnew,6.0.9*%
%TF.CreationDate,2022-12-25T21:15:46+09:00*%
%TF.ProjectId,Aideepen_ESP32,41696465-6570-4656-9e5f-45535033322e,rev?*%
%TF.SameCoordinates,Original*%
%TF.FileFunction,Legend,Bot*%
%TF.FilePolarity,Positive*%
%FSLAX46Y46*%
G04 Gerber Fmt 4.6, Leading zero omitted, Abs format (unit mm)*
G04 Created by KiCad (PCBNEW 6.0.9) date 2022-12-25 21:15:46*
%MOMM*%
%LPD*%
G01*
G04 APERTURE LIST*
%ADD10C,0.150000*%
%ADD11C,0.120000*%
G04 APERTURE END LIST*
D10*
%TO.C,J2*%
X137493333Y-67572380D02*
X137493333Y-68286666D01*
X137540952Y-68429523D01*
X137636190Y-68524761D01*
X137779047Y-68572380D01*
X137874285Y-68572380D01*
X137064761Y-67667619D02*
X137017142Y-67620000D01*
X136921904Y-67572380D01*
X136683809Y-67572380D01*
X136588571Y-67620000D01*
X136540952Y-67667619D01*
X136493333Y-67762857D01*
X136493333Y-67858095D01*
X136540952Y-68000952D01*
X137112380Y-68572380D01*
X136493333Y-68572380D01*
%TO.C,J1*%
X147653333Y-80942380D02*
X147653333Y-81656666D01*
X147700952Y-81799523D01*
X147796190Y-81894761D01*
X147939047Y-81942380D01*
X148034285Y-81942380D01*
X146653333Y-81942380D02*
X147224761Y-81942380D01*
X146939047Y-81942380D02*
X146939047Y-80942380D01*
X147034285Y-81085238D01*
X147129523Y-81180476D01*
X147224761Y-81228095D01*
%TO.C,J3*%
X111493333Y-67572380D02*
X111493333Y-68286666D01*
X111540952Y-68429523D01*
X111636190Y-68524761D01*
X111779047Y-68572380D01*
X111874285Y-68572380D01*
X111112380Y-67572380D02*
X110493333Y-67572380D01*
X110826666Y-67953333D01*
X110683809Y-67953333D01*
X110588571Y-68000952D01*
X110540952Y-68048571D01*
X110493333Y-68143809D01*
X110493333Y-68381904D01*
X110540952Y-68477142D01*
X110588571Y-68524761D01*
X110683809Y-68572380D01*
X110969523Y-68572380D01*
X111064761Y-68524761D01*
X111112380Y-68477142D01*
D11*
%TO.C,J2*%
X138490000Y-70450000D02*
X138490000Y-69120000D01*
X138490000Y-71720000D02*
X135830000Y-71720000D01*
X138490000Y-71720000D02*
X138490000Y-107340000D01*
X138490000Y-107340000D02*
X135830000Y-107340000D01*
X135830000Y-71720000D02*
X135830000Y-107340000D01*
X138490000Y-69120000D02*
X137160000Y-69120000D01*
%TO.C,J1*%
X148650000Y-85090000D02*
X148650000Y-95310000D01*
X145990000Y-85090000D02*
X145990000Y-95310000D01*
X148650000Y-82490000D02*
X147320000Y-82490000D01*
X148650000Y-83820000D02*
X148650000Y-82490000D01*
X148650000Y-95310000D02*
X145990000Y-95310000D01*
X148650000Y-85090000D02*
X145990000Y-85090000D01*
%TO.C,J3*%
X109830000Y-71720000D02*
X109830000Y-107340000D01*
X112490000Y-71720000D02*
X112490000Y-107340000D01*
X112490000Y-107340000D02*
X109830000Y-107340000D01*
X112490000Y-71720000D02*
X109830000Y-71720000D01*
X112490000Y-70450000D02*
X112490000Y-69120000D01*
X112490000Y-69120000D02*
X111160000Y-69120000D01*
%TD*%
M02*
