<?xml version="1.0" standalone="no"?>
 <!DOCTYPE svg PUBLIC "-//W3C//DTD SVG 1.1//EN" 
 "http://www.w3.org/Graphics/SVG/1.1/DTD/svg11.dtd"> 
<svg
  xmlns:svg="http://www.w3.org/2000/svg"
  xmlns="http://www.w3.org/2000/svg"
  xmlns:xlink="http://www.w3.org/1999/xlink"
  version="1.1"
  width="29.700220cm" height="21.000720cm" viewBox="0 0 297002200 210007200">
<title>SVG Picture created as Aideepen_ESP32-B_Silkscreen.svg date 2022/12/25 21:15:34 </title>
  <desc>Picture generated by PCBNEW </desc>
<g style="fill:#000000; fill-opacity:1.000000;stroke:#000000; stroke-opacity:1.000000;
stroke-linecap:round; stroke-linejoin:round;"
 transform="translate(0 0) scale(1 1)">
</g>
<g style="fill:#000000; fill-opacity:0.0; 
stroke:#000000; stroke-width:0.000000; stroke-opacity:1; 
stroke-linecap:round; stroke-linejoin:round;">
</g>
<g style="fill:#000000; fill-opacity:0.0; 
stroke:#000000; stroke-width:150000.000000; stroke-opacity:1; 
stroke-linecap:round; stroke-linejoin:round;">
<text x="137160000.000000" y="68620000.000000"
transform="scale(-1 1) translate(-274320000.000000 0)"
textLength="1519286.000000" font-size="1333333.000000" lengthAdjust="spacingAndGlyphs"
text-anchor="middle" opacity="0">J2</text>
<g class="stroked-text"><desc>J2</desc>
<path d="M137493333 67572380
L137493333 68286666
L137540952 68429523
L137636190 68524761
L137779047 68572380
L137874285 68572380
" />
<path d="M137064761 67667619
L137017142 67620000
L136921904 67572380
L136683809 67572380
L136588571 67620000
L136540952 67667619
L136493333 67762857
L136493333 67858095
L136540952 68000952
L137112380 68572380
L136493333 68572380
" />
</g><text x="147320000.000000" y="81990000.000000"
transform="scale(-1 1) translate(-294640000.000000 0)"
textLength="1519286.000000" font-size="1333333.000000" lengthAdjust="spacingAndGlyphs"
text-anchor="middle" opacity="0">J1</text>
<g class="stroked-text"><desc>J1</desc>
<path d="M147653333 80942380
L147653333 81656666
L147700952 81799523
L147796190 81894761
L147939047 81942380
L148034285 81942380
" />
<path d="M146653333 81942380
L147224761 81942380
" />
<path d="M146939047 81942380
L146939047 80942380
L147034285 81085238
L147129523 81180476
L147224761 81228095
" />
</g><text x="111160000.000000" y="68620000.000000"
transform="scale(-1 1) translate(-222320000.000000 0)"
textLength="1519286.000000" font-size="1333333.000000" lengthAdjust="spacingAndGlyphs"
text-anchor="middle" opacity="0">J3</text>
<g class="stroked-text"><desc>J3</desc>
<path d="M111493333 67572380
L111493333 68286666
L111540952 68429523
L111636190 68524761
L111779047 68572380
L111874285 68572380
" />
<path d="M111112380 67572380
L110493333 67572380
L110826666 67953333
L110683809 67953333
L110588571 68000952
L110540952 68048571
L110493333 68143809
L110493333 68381904
L110540952 68477142
L110588571 68524761
L110683809 68572380
L110969523 68572380
L111064761 68524761
L111112380 68477142
" />
</g></g>
<g style="fill:#000000; fill-opacity:0.0; 
stroke:#000000; stroke-width:120000.000000; stroke-opacity:1; 
stroke-linecap:round; stroke-linejoin:round;">
<path d="M138490000 70450000
L138490000 69120000
" />
<path d="M138490000 71720000
L135830000 71720000
" />
<path d="M138490000 71720000
L138490000 107340000
" />
<path d="M138490000 107340000
L135830000 107340000
" />
<path d="M135830000 71720000
L135830000 107340000
" />
<path d="M138490000 69120000
L137160000 69120000
" />
<path d="M148650000 85090000
L148650000 95310000
" />
<path d="M145990000 85090000
L145990000 95310000
" />
<path d="M148650000 82490000
L147320000 82490000
" />
<path d="M148650000 83820000
L148650000 82490000
" />
<path d="M148650000 95310000
L145990000 95310000
" />
<path d="M148650000 85090000
L145990000 85090000
" />
<path d="M109830000 71720000
L109830000 107340000
" />
<path d="M112490000 71720000
L112490000 107340000
" />
<path d="M112490000 107340000
L109830000 107340000
" />
<path d="M112490000 71720000
L109830000 71720000
" />
<path d="M112490000 70450000
L112490000 69120000
" />
<path d="M112490000 69120000
L111160000 69120000
" />
<g >
</g>
<g >
</g>
<g >
</g>
<g >
</g>
<g >
</g>
<g >
</g>
<g >
</g>
</g> 
</svg>
