<?xml version="1.0" standalone="no"?>
 <!DOCTYPE svg PUBLIC "-//W3C//DTD SVG 1.1//EN" 
 "http://www.w3.org/Graphics/SVG/1.1/DTD/svg11.dtd"> 
<svg
  xmlns:svg="http://www.w3.org/2000/svg"
  xmlns="http://www.w3.org/2000/svg"
  xmlns:xlink="http://www.w3.org/1999/xlink"
  version="1.1"
  width="29.700220cm" height="21.000720cm" viewBox="0 0 297002200 210007200">
<title>SVG Picture created as Aideepen_ESP32-User_Drawings.svg date 2022/12/25 21:15:35 </title>
  <desc>Picture generated by PCBNEW </desc>
<g style="fill:#000000; fill-opacity:1.000000;stroke:#000000; stroke-opacity:1.000000;
stroke-linecap:round; stroke-linejoin:round;"
 transform="translate(0 0) scale(1 1)">
</g>
<g style="fill:#000000; fill-opacity:0.0; 
stroke:#000000; stroke-width:0.000000; stroke-opacity:1; 
stroke-linecap:round; stroke-linejoin:round;">
</g>
<g style="fill:#000000; fill-opacity:0.0; 
stroke:#000000; stroke-width:800000.000000; stroke-opacity:1; 
stroke-linecap:round; stroke-linejoin:round;">
<text x="123190000.000000" y="79070000.000000"
textLength="15433095.000000" font-size="4266666.000000" lengthAdjust="spacingAndGlyphs"
text-anchor="middle" opacity="0">ESP32</text>
<g class="stroked-text"><desc>ESP32</desc>
<path d="M116332857 77241428
L117399523 77241428
" />
<path d="M117856666 78917619
L116332857 78917619
L116332857 75717619
L117856666 75717619
" />
<path d="M119075714 78765238
L119532857 78917619
L120294761 78917619
L120599523 78765238
L120751904 78612857
L120904285 78308095
L120904285 78003333
L120751904 77698571
L120599523 77546190
L120294761 77393809
L119685238 77241428
L119380476 77089047
L119228095 76936666
L119075714 76631904
L119075714 76327142
L119228095 76022380
L119380476 75870000
L119685238 75717619
L120447142 75717619
L120904285 75870000
" />
<path d="M122275714 78917619
L122275714 75717619
L123494761 75717619
L123799523 75870000
L123951904 76022380
L124104285 76327142
L124104285 76784285
L123951904 77089047
L123799523 77241428
L123494761 77393809
L122275714 77393809
" />
<path d="M125170952 75717619
L127151904 75717619
L126085238 76936666
L126542380 76936666
L126847142 77089047
L126999523 77241428
L127151904 77546190
L127151904 78308095
L126999523 78612857
L126847142 78765238
L126542380 78917619
L125628095 78917619
L125323333 78765238
L125170952 78612857
" />
<path d="M128370952 76022380
L128523333 75870000
L128828095 75717619
L129590000 75717619
L129894761 75870000
L130047142 76022380
L130199523 76327142
L130199523 76631904
L130047142 77089047
L128218571 78917619
L130199523 78917619
" />
</g><text x="123190000.000000" y="83515000.000000"
textLength="15973333.000000" font-size="4266666.000000" lengthAdjust="spacingAndGlyphs"
text-anchor="middle" opacity="0">SHT35</text>
<g class="stroked-text"><desc>SHT35</desc>
<path d="M116332857 83210238
L116790000 83362619
L117551904 83362619
L117856666 83210238
L118009047 83057857
L118161428 82753095
L118161428 82448333
L118009047 82143571
L117856666 81991190
L117551904 81838809
L116942380 81686428
L116637619 81534047
L116485238 81381666
L116332857 81076904
L116332857 80772142
L116485238 80467380
L116637619 80315000
L116942380 80162619
L117704285 80162619
L118161428 80315000
" />
<path d="M119532857 83362619
L119532857 80162619
" />
<path d="M119532857 81686428
L121361428 81686428
" />
<path d="M121361428 83362619
L121361428 80162619
" />
<path d="M122428095 80162619
L124256666 80162619
" />
<path d="M123342380 83362619
L123342380 80162619
" />
<path d="M125018571 80162619
L126999523 80162619
L125932857 81381666
L126390000 81381666
L126694761 81534047
L126847142 81686428
L126999523 81991190
L126999523 82753095
L126847142 83057857
L126694761 83210238
L126390000 83362619
L125475714 83362619
L125170952 83210238
L125018571 83057857
" />
<path d="M129894761 80162619
L128370952 80162619
L128218571 81686428
L128370952 81534047
L128675714 81381666
L129437619 81381666
L129742380 81534047
L129894761 81686428
L130047142 81991190
L130047142 82753095
L129894761 83057857
L129742380 83210238
L129437619 83362619
L128675714 83362619
L128370952 83210238
L128218571 83057857
" />
</g><g >
</g>
<g >
</g>
<g >
</g>
<g >
</g>
<g >
</g>
<g >
</g>
<g >
</g>
</g> 
</svg>
