M48
; DRILL file {KiCad 6.0.9} date 2022年12月24日 21時26分45秒
; FORMAT={-:-/ absolute / metric / decimal}
; #@! TF.CreationDate,2022-12-24T21:26:45+09:00
; #@! TF.GenerationSoftware,Kicad,Pcbnew,6.0.9
; #@! TF.FileFunction,MixedPlating,1,2
FMAT,2
METRIC
; #@! TA.AperFunction,Plated,PTH,ComponentDrill
T1C0.800
%
G90
G05
T1
X3.845Y40.04
X3.845Y37.5
X3.845Y34.96
X3.845Y32.42
X3.845Y29.88
X3.845Y27.34
X3.845Y24.8
X3.845Y22.26
X3.845Y19.72
X3.845Y17.18
X3.845Y14.64
X3.845Y12.1
X3.845Y9.56
X3.845Y7.02
X3.845Y4.48
X29.845Y40.04
X29.845Y37.5
X29.845Y34.96
X29.845Y32.42
X29.845Y29.88
X29.845Y27.34
X29.845Y24.8
X29.845Y22.26
X29.845Y19.72
X29.845Y17.18
X29.845Y14.64
X29.845Y12.1
X29.845Y9.56
X29.845Y7.02
X29.845Y4.48
X40.005Y26.67
X40.005Y24.13
X40.005Y21.59
X40.005Y19.05
X40.005Y16.51
T0
M30
