<?xml version="1.0" standalone="no"?>
 <!DOCTYPE svg PUBLIC "-//W3C//DTD SVG 1.1//EN" 
 "http://www.w3.org/Graphics/SVG/1.1/DTD/svg11.dtd"> 
<svg
  xmlns:svg="http://www.w3.org/2000/svg"
  xmlns="http://www.w3.org/2000/svg"
  xmlns:xlink="http://www.w3.org/1999/xlink"
  version="1.1"
  width="29.700220cm" height="21.000720cm" viewBox="0 0 297002200 210007200">
<title>SVG Picture created as Aideepen_ESP32-F_Mask.svg date 2022/12/25 21:15:34 </title>
  <desc>Picture generated by PCBNEW </desc>
<g style="fill:#000000; fill-opacity:1.000000;stroke:#000000; stroke-opacity:1.000000;
stroke-linecap:round; stroke-linejoin:round;"
 transform="translate(0 0) scale(1 1)">
</g>
<g style="fill:#000000; fill-opacity:0.0; 
stroke:#000000; stroke-width:0.000000; stroke-opacity:1; 
stroke-linecap:round; stroke-linejoin:round;">
<g >
</g>
<g style="fill:#000000; fill-opacity:0.0; 
stroke:#000000; stroke-width:1.000000; stroke-opacity:1; 
stroke-linecap:round; stroke-linejoin:round;">
</g>
<g style="fill:#000000; fill-opacity:1.0; 
stroke:#000000; stroke-width:1.000000; stroke-opacity:1; 
stroke-linecap:round; stroke-linejoin:round;">
<path style="fill:#000000; fill-opacity:1.0; 
stroke:#000000; stroke-width:1.000000; stroke-opacity:1; 
stroke-linecap:round; stroke-linejoin:round;fill-rule:evenodd;"
d="M 128890000.000000,91125000.000000
128794329.000000,91105970.000000
128713223.000000,91051777.000000
128659030.000000,90970671.000000
128640000.000000,90875000.000000
128640000.000000,90050000.000000
128659030.000000,89954329.000000
128713223.000000,89873223.000000
128794329.000000,89819030.000000
128890000.000000,89800000.000000
130190000.000000,89800000.000000
130285671.000000,89819030.000000
130366777.000000,89873223.000000
130420970.000000,89954329.000000
130440000.000000,90050000.000000
130440000.000000,90875000.000000
130420970.000000,90970671.000000
130366777.000000,91051777.000000
130285671.000000,91105970.000000
130190000.000000,91125000.000000
Z" /> 
<path style="fill:#000000; fill-opacity:1.0; 
stroke:#000000; stroke-width:1.000000; stroke-opacity:1; 
stroke-linecap:round; stroke-linejoin:round;fill-rule:evenodd;"
d="M 128890000.000000,88000000.000000
128794329.000000,87980970.000000
128713223.000000,87926777.000000
128659030.000000,87845671.000000
128640000.000000,87750000.000000
128640000.000000,86925000.000000
128659030.000000,86829329.000000
128713223.000000,86748223.000000
128794329.000000,86694030.000000
128890000.000000,86675000.000000
130190000.000000,86675000.000000
130285671.000000,86694030.000000
130366777.000000,86748223.000000
130420970.000000,86829329.000000
130440000.000000,86925000.000000
130440000.000000,87750000.000000
130420970.000000,87845671.000000
130366777.000000,87926777.000000
130285671.000000,87980970.000000
130190000.000000,88000000.000000
Z" /> 
</g>
<g >
</g>
<g style="fill:#000000; fill-opacity:1.0; 
stroke:#000000; stroke-width:1.000000; stroke-opacity:1; 
stroke-linecap:round; stroke-linejoin:round;">
<path style="fill:#000000; fill-opacity:1.0; 
stroke:#000000; stroke-width:1.000000; stroke-opacity:1; 
stroke-linecap:round; stroke-linejoin:round;fill-rule:evenodd;"
d="M 138010000.000000,69600000.000000
138010000.000000,71300000.000000
136310000.000000,71300000.000000
136310000.000000,69600000.000000
Z" /> 
<circle cx="137160000.000000" cy="72990000.000000" r="850000.000000" /> 
<circle cx="137160000.000000" cy="75530000.000000" r="850000.000000" /> 
<circle cx="137160000.000000" cy="78070000.000000" r="850000.000000" /> 
<circle cx="137160000.000000" cy="80610000.000000" r="850000.000000" /> 
<circle cx="137160000.000000" cy="83150000.000000" r="850000.000000" /> 
<circle cx="137160000.000000" cy="85690000.000000" r="850000.000000" /> 
<circle cx="137160000.000000" cy="88230000.000000" r="850000.000000" /> 
<circle cx="137160000.000000" cy="90770000.000000" r="850000.000000" /> 
<circle cx="137160000.000000" cy="93310000.000000" r="850000.000000" /> 
<circle cx="137160000.000000" cy="95850000.000000" r="850000.000000" /> 
<circle cx="137160000.000000" cy="98390000.000000" r="850000.000000" /> 
<circle cx="137160000.000000" cy="100930000.000000" r="850000.000000" /> 
<circle cx="137160000.000000" cy="103470000.000000" r="850000.000000" /> 
<circle cx="137160000.000000" cy="106010000.000000" r="850000.000000" /> 
</g>
<g >
</g>
<g style="fill:#000000; fill-opacity:1.0; 
stroke:#000000; stroke-width:1.000000; stroke-opacity:1; 
stroke-linecap:round; stroke-linejoin:round;">
<path style="fill:#000000; fill-opacity:1.0; 
stroke:#000000; stroke-width:1.000000; stroke-opacity:1; 
stroke-linecap:round; stroke-linejoin:round;fill-rule:evenodd;"
d="M 148170000.000000,82970000.000000
148170000.000000,84670000.000000
146470000.000000,84670000.000000
146470000.000000,82970000.000000
Z" /> 
<circle cx="147320000.000000" cy="86360000.000000" r="850000.000000" /> 
<circle cx="147320000.000000" cy="88900000.000000" r="850000.000000" /> 
<circle cx="147320000.000000" cy="91440000.000000" r="850000.000000" /> 
<circle cx="147320000.000000" cy="93980000.000000" r="850000.000000" /> 
</g>
<g >
</g>
<g style="fill:#000000; fill-opacity:1.0; 
stroke:#000000; stroke-width:1.000000; stroke-opacity:1; 
stroke-linecap:round; stroke-linejoin:round;">
<path style="fill:#000000; fill-opacity:1.0; 
stroke:#000000; stroke-width:1.000000; stroke-opacity:1; 
stroke-linecap:round; stroke-linejoin:round;fill-rule:evenodd;"
d="M 112010000.000000,69600000.000000
112010000.000000,71300000.000000
110310000.000000,71300000.000000
110310000.000000,69600000.000000
Z" /> 
<circle cx="111160000.000000" cy="72990000.000000" r="850000.000000" /> 
<circle cx="111160000.000000" cy="75530000.000000" r="850000.000000" /> 
<circle cx="111160000.000000" cy="78070000.000000" r="850000.000000" /> 
<circle cx="111160000.000000" cy="80610000.000000" r="850000.000000" /> 
<circle cx="111160000.000000" cy="83150000.000000" r="850000.000000" /> 
<circle cx="111160000.000000" cy="85690000.000000" r="850000.000000" /> 
<circle cx="111160000.000000" cy="88230000.000000" r="850000.000000" /> 
<circle cx="111160000.000000" cy="90770000.000000" r="850000.000000" /> 
<circle cx="111160000.000000" cy="93310000.000000" r="850000.000000" /> 
<circle cx="111160000.000000" cy="95850000.000000" r="850000.000000" /> 
<circle cx="111160000.000000" cy="98390000.000000" r="850000.000000" /> 
<circle cx="111160000.000000" cy="100930000.000000" r="850000.000000" /> 
<circle cx="111160000.000000" cy="103470000.000000" r="850000.000000" /> 
<circle cx="111160000.000000" cy="106010000.000000" r="850000.000000" /> 
</g>
<g >
</g>
<g >
</g>
<g >
</g>
</g> 
</svg>
